<svg xmlns="http://www.w3.org/2000/svg" viewBox="0 0 253.58 221.67"><defs><style>.cls-1{fill:#72bf44;}.cls-2{fill:#02ab4f;}.cls-3{fill:#01ab4f;}.cls-4{fill:#73bf45;}.cls-5{fill:#686868;}.cls-6{fill:#838282;}.cls-7{fill:#686767;}.cls-8{fill:#676767;}.cls-9{fill:#696868;}.cls-10{fill:#fcfcfc;}.cls-11{fill:#f7f6f6;}.cls-12{fill:#8d8a8a;}</style></defs><g id="Layer_2" data-name="Layer 2"><g id="Layer_1-2" data-name="Layer 1"><path class="cls-1" d="M1.4,152.06c.11-5.27.2-10.55.34-15.82.12-4.47.22-9,.48-13.41,1.07-18.61,7.66-35,20.16-48.86A97.75,97.75,0,0,1,43.21,56.78C57.7,47.63,72.57,39.11,87.45,30.6c7.35-4.2,14.69-8.44,22-12.64a10.07,10.07,0,0,0,2-1.55c1.7-1.64,3.45-3.22,5.17-4.83.76-.71,1.52-1.41,2.26-2.15a7.37,7.37,0,0,0,2.27-4A2.09,2.09,0,0,1,122,4.05c1.63-1.22,3.25-2.46,4.89-3.66.72-.54,1-.51,1.69,0,1.36,1.06,2.7,2.13,4.05,3.2a1.62,1.62,0,0,1,.69.94,9.43,9.43,0,0,0,2.9,4.73c2.18,2.12,4.48,4.11,6.58,6.31a24.89,24.89,0,0,0,5.77,4.17Q168.68,31.4,188.73,43c8.85,5.13,17.65,10.34,26.34,15.74a72.17,72.17,0,0,1,22.4,22.18,103.2,103.2,0,0,1,13,28,74.55,74.55,0,0,1,2.34,12.58,168,168,0,0,1,.72,19c0,13.52,0,27,0,40.54,0,1.76.24,1.57-1.61,1.58-8.2,0-16.39,0-24.59,0-6,0-10.26-2.84-13-8.07a14.19,14.19,0,0,1-1.45-6.73c0-5.51-.07-11,0-16.54.06-4.24.2-8.47.12-12.71-.23-10.9-2.74-21.19-8.39-30.61a62.56,62.56,0,0,0-17-18.21c-4.07-3-8.45-5.47-12.78-8-14.17-8.44-28.55-16.52-42.94-24.6a9.78,9.78,0,0,0-7.06-1,5.49,5.49,0,0,0-1.54.65c-14.44,8.21-29,16.24-43.16,24.93C75,84.93,69.74,88,64.88,91.66A54.57,54.57,0,0,0,44.8,119.88a59.08,59.08,0,0,0-2.38,13.9c-.66,11.46-.7,22.92-.71,34.39a14.31,14.31,0,0,1-11.85,14.35,14.08,14.08,0,0,1-2.75.19H2.53c-.2,0-.4,0-.6,0-.6,0-.75-.26-.74-.79,0-1.2,0-2.4,0-3.6L1.29,160c0-2.63,0-5.27,0-7.91Z"/><path class="cls-2" d="M178.49,131.07a261,261,0,0,0-33.12-19,21.86,21.86,0,0,1-8-6.16,16.81,16.81,0,0,1-3.52-9.51,27.15,27.15,0,0,1,.78-8.52,7.21,7.21,0,0,1,1.7.81l31,16.76c1.3.7,2.62,1.38,3.9,2.1A20.89,20.89,0,0,1,182,123.51a28.14,28.14,0,0,1,.46,6.08A6.18,6.18,0,0,1,178.49,131.07Z"/><path class="cls-3" d="M74.94,129.57c0-4.93.72-9.71,3.16-14.09a20,20,0,0,1,7.65-7.59c2.45-1.42,5-2.7,7.48-4l28.32-15.35a4,4,0,0,1,1.21-.57,11.91,11.91,0,0,1,.64,3.16,22.37,22.37,0,0,1-.45,9.14,17.35,17.35,0,0,1-7,9.59,36.6,36.6,0,0,1-5.22,2.92A248.47,248.47,0,0,0,82.44,128.8c-1.16.78-2.34,1.52-3.51,2.28a4.88,4.88,0,0,1-2.62-.62C75.84,130.19,75.39,129.87,74.94,129.57Z"/><path class="cls-4" d="M74.94,129.57c.45.3.9.62,1.37.89a4.88,4.88,0,0,0,2.62.62,81.77,81.77,0,0,0,10.36,8.67c4.28,2.94,8.6,5.84,12.65,9.1a23.1,23.1,0,0,1,6.68,8.19c2.41,5.13,2.31,10.33.46,15.58-.43.1-.62-.22-.85-.4-3.19-2.54-6.2-5.29-9.43-7.78a54.66,54.66,0,0,0-6.27-4.18,37,37,0,0,1-11.79-10,29.24,29.24,0,0,1-5.43-13.52A30.57,30.57,0,0,1,74.94,129.57Z"/><path class="cls-4" d="M178.49,131.07a6.18,6.18,0,0,0,4-1.48c.42,10.39-2.84,19.24-10.91,26.07a36.82,36.82,0,0,1-5.88,4.13,69.08,69.08,0,0,0-11.19,8c-1.95,1.65-3.91,3.28-5.83,4.89-.49-.15-.48-.53-.57-.81-2.39-7.58-1-14.34,4.4-20.24a42.56,42.56,0,0,1,6.89-5.75c4-2.84,8-5.6,11.93-8.47A68.41,68.41,0,0,0,178.49,131.07Z"/><path class="cls-5" d="M28.58,208.88v-11.5c0-1.1,0-1.11,1.12-1.11,1.59,0,3.19,0,4.79,0,1,0,1,0,1,1.07,0,2.36,0,4.71,0,7.07,0,1,0,1.05,1.06,1.05h6.23c1.07,0,1.08,0,1.08-1.14,0-2.35,0-4.71,0-7.07,0-1,0-1,1-1,1.72,0,3.44,0,5.16,0,.54,0,.8.15.77.75,0,1,0,2.07,0,3.11V219.9c0,.28,0,.56,0,.84,0,.48-.23.63-.66.63-1.88,0-3.76,0-5.63,0-.68,0-.64-.42-.64-.87v-7.2c0-.28,0-.56,0-.83,0-.91,0-.92-1-.93H36.47c-.92,0-.94,0-.95.93,0,2.64,0,5.28,0,7.92,0,1,0,1-1,1h-4.8c-1.14,0-1.14,0-1.14-1.22Z"/><path class="cls-6" d="M120.86,145.38c-.73,0-.91-.21-.78-1.13l1.14-7.45c.16-1,.18-1-.76-1.41L111.78,132c-.26-.11-.53-.2-.78-.32-.75-.38-.8-.54-.34-1.29,2.32-3.82,4.66-7.63,7-11.46.32-.53.63-.93,1.32-.58a.51.51,0,0,0,.57,0c.61-.55,1.19-.23,1.78,0,2.57,1,5.14,2,7.69,3a2.55,2.55,0,0,0,2.06,0c2.55-1,5.12-2,7.68-3,.57-.21,1.11-.49,1.68,0a.53.53,0,0,0,.58,0c.74-.38,1.07.09,1.4.64,1.82,3,3.65,6,5.48,9,.5.82,1,1.63,1.5,2.46.4.68.35.83-.36,1.19-.29.14-.59.25-.88.37l-8.46,3.36c-1.11.44-1.09.43-.91,1.55.39,2.44.76,4.89,1.12,7.33.14.94-.15,1.24-1.09,1.16a3.71,3.71,0,0,1-1.85-.77c-2-1.42-4.07-2.82-6.11-4.22-.82-.57-.83-.58-1.67,0L123,144.68A3.24,3.24,0,0,1,120.86,145.38Zm23.93-16.55a1.15,1.15,0,0,0-.26-.79c-1.5-2.46-3-4.92-4.5-7.37-.61-1-.62-1-1.67-.59-2.35.92-4.7,1.82-7,2.78a3.25,3.25,0,0,1-2.66,0c-2.32-1-4.67-1.85-7-2.77-1.11-.44-1.11-.43-1.75.63q-2.16,3.52-4.3,7.07c-.18.29-.47.55-.4,1l14.17,5.6a2.54,2.54,0,0,0,.17-1.29c0-1.36,0-2.72,0-4.08,0-.23,0-.47,0-.71s.1-.58.45-.57.38.25.4.51,0,.56,0,.84c0,1.43,0,2.87,0,4.31,0,.3-.11.64.24,1Z"/><path class="cls-5" d="M181.56,203.78c0,1.91,0,3.83,0,5.75a15.45,15.45,0,0,1-.9,5.17,9.84,9.84,0,0,1-8.53,6.74,13.11,13.11,0,0,1-5.36-.28c-4.18-1.18-6.57-4-7.49-8.2a19.48,19.48,0,0,1-.42-4.17q0-5.68,0-11.39c0-1.12,0-1.13,1.1-1.13,1.64,0,3.28,0,4.91,0,.9,0,.92,0,.92.93,0,3.88,0,7.76,0,11.63a10.26,10.26,0,0,0,.68,4,3.92,3.92,0,0,0,4.75,2.46,3.85,3.85,0,0,0,2.58-2.15,7.8,7.8,0,0,0,.82-3.58c0-3.72,0-7.44,0-11.15v-1.08c0-1,0-1,1.05-1q2.4,0,4.8,0c1,0,1.06,0,1.07,1Z"/><path class="cls-5" d="M103.32,204.16c-.09,2.09.14,4.65-.15,7.2a15,15,0,0,1-.66,3,10.06,10.06,0,0,1-9.4,7.1,13.94,13.94,0,0,1-4.64-.35,10.09,10.09,0,0,1-7.38-7.89,17.59,17.59,0,0,1-.48-4.16V197.35c0-1.07,0-1.08,1.14-1.08,1.56,0,3.12,0,4.68,0,1.11,0,1.12,0,1.12,1.1v11.75a8.63,8.63,0,0,0,.85,4.06,3.84,3.84,0,0,0,4.72,2.07,4,4,0,0,0,2.6-2.48,9.43,9.43,0,0,0,.66-3.75c0-3.8,0-7.59,0-11.39v-.84c0-.34.14-.52.49-.52h5.88c.62,0,.56.43.56.83Z"/><path class="cls-5" d="M135.89,212.69a30.11,30.11,0,0,0,4.13,2,14.6,14.6,0,0,0,3.39.76,4.23,4.23,0,0,0,1.77-.16,1,1,0,0,0,.41-1.71,3.16,3.16,0,0,0-1.35-.75l-3.54-1.12a19.65,19.65,0,0,1-2.66-1.06c-3.53-1.71-4.49-4.14-3.82-7.89s3.19-5.59,6.65-6.41a12.45,12.45,0,0,1,5.82.12,24.54,24.54,0,0,1,6.13,2.36l-2.95,5.65a27.82,27.82,0,0,0-4.11-1.81,7.48,7.48,0,0,0-3.18-.38c-.86.1-1.24.4-1.33,1s.17,1,.91,1.39a12.4,12.4,0,0,0,1.79.67,45.57,45.57,0,0,1,4.53,1.54c.51.23,1,.47,1.5.74a6.52,6.52,0,0,1,3.44,6.61c-.26,4.79-3.5,6.7-7,7.26-4.5.73-8.71-.35-12.76-2.29-.51-.24-.73-.5-.42-1.1C134.15,216.31,135,214.55,135.89,212.69Z"/><path class="cls-5" d="M111.3,212.67a25.25,25.25,0,0,0,4.69,2.17,13.93,13.93,0,0,0,2.93.57,5.3,5.3,0,0,0,1.19,0c.57-.08,1.14-.24,1.23-.93s-.4-1-.9-1.29a10.07,10.07,0,0,0-2.13-.78,36.28,36.28,0,0,1-4.19-1.43,9.93,9.93,0,0,1-2.75-1.67,5.4,5.4,0,0,1-1.77-3,8.2,8.2,0,0,1,6.61-9.9,14.48,14.48,0,0,1,7.44.53,30.87,30.87,0,0,1,3.88,1.57c.47.23.69.43.38,1-.82,1.5-1.61,3-2.38,4.56-.23.45-.45.44-.84.22a18.06,18.06,0,0,0-4.19-1.73,6.63,6.63,0,0,0-2.73-.17,1.14,1.14,0,0,0-.47,2.19,7.35,7.35,0,0,0,1.76.73c1.45.45,2.91.84,4.32,1.42.48.2,1,.4,1.42.64a7.4,7.4,0,0,1,2.69,11,8.16,8.16,0,0,1-5.82,3.19A21.31,21.31,0,0,1,109,219.12c-.43-.2-.75-.38-.44-1C109.51,216.37,110.37,214.58,111.3,212.67Z"/><path class="cls-7" d="M0,221.37c.59-1.72,1.12-3.26,1.66-4.79l6.69-19.22c.45-1.31.36-1.08,1.47-1.09q2,0,4.08,0c1.24,0,1.08-.21,1.55,1.15,1.41,4,2.8,8.07,4.2,12.1l3.76,10.86c.09.26.17.53.24.76-.24.33-.54.22-.8.23H17.69c-1,0-1,0-1.29-1s-.69-2.13-1-3.21c-.13-.49-.34-.74-.89-.73-1.76,0-3.52,0-5.27,0a.8.8,0,0,0-.91.71c-.33,1.19-.74,2.36-1.08,3.55-.12.45-.31.69-.81.68Zm12-16.94h-.19c-.73,2.43-1.45,4.86-2.2,7.37h4.49C13.37,209.29,12.67,206.86,12,204.43Z"/><path class="cls-7" d="M253.58,221.37h-6.51c-.45,0-.61-.25-.73-.63-.35-1.19-.76-2.36-1.08-3.55a.87.87,0,0,0-1-.76c-1.71,0-3.43,0-5.15,0-.61,0-.82.25-1,.79-.29,1.12-.67,2.21-1,3.33a.94.94,0,0,1-1.08.83c-1.8,0-3.6,0-5.39,0-.82,0-.85-.06-.59-.83Q232,215,234,209.46q2.1-6,4.21-12.09c.42-1.19.19-1.09,1.47-1.1,1.44,0,2.88,0,4.31,0,.74,0,1,.25,1.26.93,1.71,5,3.46,10,5.2,15Zm-9.67-9.59c-.72-2.51-1.41-4.94-2.11-7.36l-.19,0c-.72,2.42-1.44,4.85-2.19,7.34Z"/><path class="cls-5" d="M188.29,208.76v-11.5c0-1,0-1,1-1h15.23c1,0,1,0,1,1,0,1.4,0,2.8,0,4.2,0,.83,0,.85-.87.86h-8c-.28,0-.56,0-.84,0-.43,0-.55.21-.55.59,0,.88,0,1.76,0,2.64s0,.87.85.87c2.07,0,4.15,0,6.23,0,1.41,0,1.3-.12,1.31,1.27v3c0,1.45.17,1.38-1.33,1.38h-5.87c-1.19,0-1.19,0-1.2,1.15,0,2.35,0,4.71,0,7.07,0,1.08,0,1.09-1.13,1.09h-4.68c-1.12,0-1.13,0-1.13-1.1Z"/><path class="cls-8" d="M219.66,196.27h7.44c1.06,0,1.07,0,1.07,1,0,1.4,0,2.8,0,4.19,0,.63-.21.83-.83.82-2.6,0-5.2,0-7.79,0a7.82,7.82,0,0,1-.84,0c-.54,0-.82.12-.8.73,0,.88,0,1.76,0,2.64,0,.57.19.77.76.76,2,0,4,0,6,0h.6c1,0,1.05,0,1.05,1.06,0,1.24,0,2.47,0,3.71,0,.85,0,.87-.89.88h-6c-1.69,0-1.5-.17-1.51,1.56,0,2.24,0,4.48,0,6.71,0,1,0,1-1,1h-5c-.89,0-.91,0-.91-1,0-4.88,0-9.75,0-14.62,0-2.84,0-5.68,0-8.51,0-1,0-1,1-1C214.55,196.26,217.11,196.27,219.66,196.27Z"/><path class="cls-9" d="M57.87,208.76V197.37c0-1.09,0-1.1,1.13-1.1q2.4,0,4.8,0c1,0,1,0,1,1.09v16.78c0,1.15,0,1.15,1.2,1.16,3,0,6.07,0,9.11,0,1.09,0,1.1,0,1.1,1.13,0,1.31,0,2.63,0,3.95,0,1,0,1-1,1H59.13c-1.26,0-1.26,0-1.26-1.23Z"/><path class="cls-10" d="M144.79,128.83l-14.11,5.59c-.35-.33-.24-.67-.24-1,0-1.44,0-2.88,0-4.31,0-.28,0-.56,0-.84s-.11-.51-.4-.51-.45.26-.45.57,0,.48,0,.71c0,1.36,0,2.72,0,4.08a2.54,2.54,0,0,1-.17,1.29l-14.17-5.6c-.07-.49.22-.75.4-1q2.14-3.54,4.3-7.07c.64-1.06.64-1.07,1.75-.63,2.34.92,4.69,1.81,7,2.77a3.25,3.25,0,0,0,2.66,0c2.32-1,4.67-1.86,7-2.78,1-.41,1.06-.41,1.67.59,1.51,2.45,3,4.91,4.5,7.37A1.15,1.15,0,0,1,144.79,128.83Zm-23.28-6.32c-.2,0-.34.12-.38.29a.37.37,0,0,0,.11.43,2.71,2.71,0,0,0,.63.33l2.78,1.08,2.12.83c.32.12.73.35.92-.13s-.25-.53-.53-.67l-.11,0-5.12-2C121.78,122.58,121.63,122.55,121.51,122.51Zm-.93,2.23c-.18,0-.33.08-.38.26a.36.36,0,0,0,.1.43,2.2,2.2,0,0,0,.51.3c1.71.67,3.41,1.33,5.12,2a1.2,1.2,0,0,0,.46.11.38.38,0,0,0,.37-.25.33.33,0,0,0-.12-.42,2.83,2.83,0,0,0-.62-.33c-1.63-.65-3.26-1.28-4.89-1.91C121,124.84,120.75,124.79,120.58,124.74Zm5.09,5c0-.31-.3-.41-.56-.51l-5.12-2a1.88,1.88,0,0,0-.58-.13.36.36,0,0,0-.35.27.33.33,0,0,0,.11.42,3,3,0,0,0,.53.28l5,1.94a1.36,1.36,0,0,0,.57.14A.4.4,0,0,0,125.67,129.79Zm13.73-5-.65.21-4.57,1.78c-.22.09-.44.19-.65.3s-.34.26-.28.47a.41.41,0,0,0,.57.28c.15,0,.31-.08.46-.14l4.79-1.87a2.83,2.83,0,0,0,.62-.33.38.38,0,0,0,.11-.44C139.75,124.82,139.59,124.78,139.4,124.74Zm-6.74.87a.5.5,0,0,0,.12,0l5.8-2.24a.41.41,0,0,0,.26-.49c-.08-.28-.32-.32-.58-.26a5.22,5.22,0,0,0-.56.18L133,124.6a2.65,2.65,0,0,0-.61.36.34.34,0,0,0-.12.42A.37.37,0,0,0,132.66,125.61Zm2.1,4.64.54-.18c1.62-.64,3.25-1.26,4.87-1.91.34-.14.92-.23.71-.74s-.68-.2-1-.06c-1.59.61-3.19,1.22-4.77,1.84a2.91,2.91,0,0,0-.62.35.36.36,0,0,0-.09.43C134.43,130.15,134.57,130.2,134.76,130.25Z"/><path class="cls-11" d="M12,204.43c.69,2.43,1.39,4.86,2.1,7.37H9.59c.75-2.51,1.47-4.94,2.2-7.37Z"/><path class="cls-11" d="M243.91,211.78h-4.49c.75-2.49,1.47-4.92,2.19-7.34l.19,0C242.5,206.84,243.19,209.27,243.91,211.78Z"/><path class="cls-12" d="M121.51,122.51c.12,0,.27.07.42.13l5.12,2,.11,0c.28.14.68.28.53.67s-.6.25-.92.13l-2.12-.83-2.78-1.08a2.71,2.71,0,0,1-.63-.33.37.37,0,0,1-.11-.43C121.17,122.63,121.31,122.55,121.51,122.51Z"/><path class="cls-12" d="M120.58,124.74c.17.05.37.1.55.17,1.63.63,3.26,1.26,4.89,1.91a2.83,2.83,0,0,1,.62.33.33.33,0,0,1,.12.42.38.38,0,0,1-.37.25,1.2,1.2,0,0,1-.46-.11c-1.71-.65-3.41-1.31-5.12-2a2.2,2.2,0,0,1-.51-.3.36.36,0,0,1-.1-.43C120.25,124.82,120.4,124.78,120.58,124.74Z"/><path class="cls-12" d="M125.67,129.79a.4.4,0,0,1-.39.42,1.36,1.36,0,0,1-.57-.14l-5-1.94a3,3,0,0,1-.53-.28.33.33,0,0,1-.11-.42.36.36,0,0,1,.35-.27,1.88,1.88,0,0,1,.58.13l5.12,2C125.37,129.38,125.65,129.48,125.67,129.79Z"/><path class="cls-12" d="M139.4,124.74c.19,0,.35.08.4.26a.38.38,0,0,1-.11.44,2.83,2.83,0,0,1-.62.33l-4.79,1.87c-.15.06-.31.09-.46.14a.41.41,0,0,1-.57-.28c-.06-.21.1-.37.28-.47s.43-.21.65-.3l4.57-1.78Z"/><path class="cls-12" d="M132.66,125.61a.37.37,0,0,1-.38-.23.34.34,0,0,1,.12-.42,2.65,2.65,0,0,1,.61-.36l4.69-1.82a5.22,5.22,0,0,1,.56-.18c.26-.06.5,0,.58.26a.41.41,0,0,1-.26.49l-5.8,2.24A.5.5,0,0,1,132.66,125.61Z"/><path class="cls-12" d="M134.76,130.25c-.19-.05-.33-.1-.4-.27a.36.36,0,0,1,.09-.43,2.91,2.91,0,0,1,.62-.35c1.58-.62,3.18-1.23,4.77-1.84.36-.14.85-.41,1,.06s-.37.6-.71.74c-1.62.65-3.25,1.27-4.87,1.91Z"/></g></g></svg>